<svg width="54" height="54" viewBox="0 0 54 54" >
<path fill-rule="evenodd" clip-rule="evenodd" d="M27 53.5C19.6752 53.5 13.0317 50.6373 8.16748 45.9895C8.09009 45.9156 8.01318 45.8412 7.93677 45.7664L7.90808 45.7383L7.81921 45.6506C2.98547 40.8622 0 34.2733 0 27C0 19.6823 3.02209 13.0573 7.90808 8.26166C12.7942 3.46613 19.5442 0.5 27 0.5C41.9117 0.5 54 12.3644 54 27C54 41.6356 41.9117 53.5 27 53.5ZM11.8527 23.6652L6.78113 20.5211C7.8103 17.4274 9.57202 14.5831 11.9604 12.239C12.8829 11.3336 13.8813 10.52 14.9412 9.80408L11.8527 23.6652ZM12.5732 42.1873L17.0685 45.5397C19.722 46.9089 22.6575 47.7231 25.6871 47.9063L27.7253 41.4154L12.5732 42.1873ZM29.3165 47.8222C34.106 47.3091 38.6031 45.2158 42.0503 41.8503L38.3627 36.1829L29.3165 47.8222ZM45.5786 37.307C45.6519 37.1798 45.7238 37.0518 45.7943 36.9232L46.4674 35.5825C47.6909 32.9089 48.3412 29.9874 48.3412 27H48.2692C48.2692 25.8275 48.1686 24.6651 47.9723 23.524L41.9241 22.8862L45.5786 37.307ZM42.0396 12.239C40.9504 11.17 39.7552 10.2289 38.4784 9.4256L34.2662 13.8676L46.6382 18.9832C45.5796 16.4853 44.0265 14.1891 42.0396 12.239ZM27 6.12476C24.66 6.12476 22.3597 6.50323 20.1842 7.22559L20.5509 13.0721L34.0144 7.29266C31.7805 6.52661 29.4114 6.12476 27 6.12476ZM5.96985 30.5633C6.4281 33.1689 7.38464 35.6625 8.78394 37.9127L15.3904 35.861L6.24158 24.1592L5.96985 30.5633ZM27 15.8239L36.3667 19.597L38.5912 29.1627L32.3584 36.8336H22.3617L16.1288 29.1627L18.3533 19.597L27 15.8239Z" fill="black"/>
</svg>
