<svg width="109" height="29" viewBox="0 0 109 29" >
<path d="M7.21606 0.567871C10.5227 0.567871 13.0614 1.15454 14.8321 2.32787C16.6027 3.47987 17.4881 5.37854 17.4881 8.02387C17.4881 10.6905 16.5921 12.6212 14.8001 13.8159C13.0081 14.9892 10.4481 15.5759 7.12006 15.5759H5.55206V22.9999H0.560059V1.14387C1.64806 0.930538 2.80006 0.781205 4.01606 0.695871C5.23206 0.610538 6.29873 0.567871 7.21606 0.567871ZM7.53606 4.82387C7.17339 4.82387 6.81073 4.83454 6.44806 4.85587C6.10673 4.8772 5.80806 4.89854 5.55206 4.91987V11.3199H7.12006C8.84806 11.3199 10.1494 11.0852 11.0241 10.6159C11.8987 10.1465 12.3361 9.27187 12.3361 7.99187C12.3361 7.3732 12.2187 6.8612 11.9841 6.45587C11.7707 6.05054 11.4507 5.73054 11.0241 5.49587C10.6187 5.23987 10.1174 5.0692 9.52006 4.98387C8.92273 4.8772 8.26139 4.82387 7.53606 4.82387Z M36.1091 14.5519C36.1091 15.8745 35.9171 17.0905 35.5331 18.1999C35.1491 19.2879 34.5944 20.2265 33.8691 21.0159C33.1437 21.7839 32.2691 22.3812 31.2451 22.8079C30.2424 23.2345 29.1117 23.4479 27.8531 23.4479C26.6157 23.4479 25.4851 23.2345 24.4611 22.8079C23.4584 22.3812 22.5944 21.7839 21.8691 21.0159C21.1437 20.2265 20.5784 19.2879 20.1731 18.1999C19.7677 17.0905 19.5651 15.8745 19.5651 14.5519C19.5651 13.2292 19.7677 12.0239 20.1731 10.9359C20.5997 9.84787 21.1757 8.91987 21.9011 8.15187C22.6477 7.38387 23.5224 6.78654 24.5251 6.35987C25.5491 5.9332 26.6584 5.71987 27.8531 5.71987C29.0691 5.71987 30.1784 5.9332 31.1811 6.35987C32.2051 6.78654 33.0797 7.38387 33.8051 8.15187C34.5304 8.91987 35.0957 9.84787 35.5011 10.9359C35.9064 12.0239 36.1091 13.2292 36.1091 14.5519ZM31.2451 14.5519C31.2451 13.0799 30.9464 11.9279 30.3491 11.0959C29.7731 10.2425 28.9411 9.81587 27.8531 9.81587C26.7651 9.81587 25.9224 10.2425 25.3251 11.0959C24.7277 11.9279 24.4291 13.0799 24.4291 14.5519C24.4291 16.0239 24.7277 17.1972 25.3251 18.0719C25.9224 18.9252 26.7651 19.3519 27.8531 19.3519C28.9411 19.3519 29.7731 18.9252 30.3491 18.0719C30.9464 17.1972 31.2451 16.0239 31.2451 14.5519Z M39.0026 14.5839C39.0026 13.3679 39.1946 12.2265 39.5786 11.1599C39.9839 10.0719 40.5599 9.1332 41.3066 8.34387C42.0532 7.5332 42.9599 6.89321 44.0266 6.42387C45.0932 5.95454 46.3092 5.71987 47.6746 5.71987C48.5706 5.71987 49.3919 5.80521 50.1386 5.97587C50.8852 6.1252 51.6106 6.3492 52.3146 6.64787L51.3226 10.4559C50.8746 10.2852 50.3839 10.1359 49.8506 10.0079C49.3172 9.87987 48.7199 9.81587 48.0586 9.81587C46.6506 9.81587 45.5946 10.2532 44.8906 11.1279C44.2079 12.0025 43.8666 13.1545 43.8666 14.5839C43.8666 16.0985 44.1866 17.2719 44.8266 18.1039C45.4879 18.9359 46.6292 19.3519 48.2506 19.3519C48.8266 19.3519 49.4452 19.2985 50.1066 19.1919C50.7679 19.0852 51.3759 18.9145 51.9306 18.6799L52.6026 22.5839C52.0479 22.8185 51.3546 23.0212 50.5226 23.1919C49.6906 23.3625 48.7732 23.4479 47.7706 23.4479C46.2346 23.4479 44.9119 23.2239 43.8026 22.7759C42.6932 22.3065 41.7759 21.6772 41.0506 20.8879C40.3466 20.0985 39.8239 19.1705 39.4826 18.1039C39.1626 17.0159 39.0026 15.8425 39.0026 14.5839Z M72.5706 0.823872V5.07987H65.8826V22.9999H60.8906V5.07987H54.2026V0.823872H72.5706Z M90.4028 6.16787C89.4428 9.41054 88.4401 12.4505 87.3948 15.2879C86.3495 18.1252 85.2081 20.8772 83.9708 23.5439C83.5228 24.5039 83.0748 25.3145 82.6268 25.9759C82.1788 26.6585 81.6881 27.2132 81.1548 27.6399C80.6215 28.0879 80.0135 28.4079 79.3308 28.5999C78.6695 28.8132 77.8908 28.9199 76.9948 28.9199C76.2481 28.9199 75.5548 28.8452 74.9148 28.6959C74.2961 28.5679 73.7841 28.4185 73.3788 28.2479L74.2108 24.4399C74.7015 24.6105 75.1388 24.7279 75.5228 24.7919C75.9068 24.8559 76.3121 24.8879 76.7388 24.8879C77.5921 24.8879 78.2428 24.6532 78.6908 24.1839C79.1601 23.7359 79.5548 23.1065 79.8748 22.2959C78.7868 20.1625 77.6988 17.7732 76.6108 15.1279C75.5228 12.4612 74.4988 9.47454 73.5388 6.16787H78.5948C78.8081 6.99987 79.0535 7.90654 79.3308 8.88787C79.6295 9.84787 79.9388 10.8292 80.2588 11.8319C80.5788 12.8132 80.8988 13.7732 81.2188 14.7119C81.5601 15.6505 81.8801 16.5039 82.1788 17.2719C82.4561 16.5039 82.7441 15.6505 83.0428 14.7119C83.3415 13.7732 83.6295 12.8132 83.9068 11.8319C84.2055 10.8292 84.4828 9.84787 84.7388 8.88787C85.0161 7.90654 85.2615 6.99987 85.4748 6.16787H90.4028Z M103.743 14.7119C103.743 13.2399 103.412 12.0665 102.751 11.1919C102.089 10.2959 101.108 9.84787 99.8068 9.84787C99.3801 9.84787 98.9855 9.86921 98.6228 9.91187C98.2601 9.9332 97.9615 9.9652 97.7268 10.0079V18.6159C98.0255 18.8079 98.4095 18.9679 98.8788 19.0959C99.3695 19.2239 99.8601 19.2879 100.351 19.2879C102.612 19.2879 103.743 17.7625 103.743 14.7119ZM108.607 14.5839C108.607 15.8852 108.447 17.0692 108.127 18.1359C107.807 19.2025 107.337 20.1199 106.719 20.8879C106.1 21.6559 105.332 22.2532 104.415 22.6799C103.497 23.1065 102.441 23.3199 101.247 23.3199C100.585 23.3199 99.9668 23.2559 99.3908 23.1279C98.8148 22.9999 98.2601 22.8185 97.7268 22.5839V28.9199H92.9588V6.74387C93.3855 6.61587 93.8761 6.49854 94.4308 6.39187C94.9855 6.26387 95.5615 6.1572 96.1588 6.07187C96.7775 5.98654 97.3961 5.92254 98.0148 5.87987C98.6548 5.81587 99.2628 5.78387 99.8388 5.78387C101.225 5.78387 102.463 5.9972 103.551 6.42387C104.639 6.82921 105.556 7.41587 106.303 8.18387C107.049 8.93054 107.615 9.84787 107.999 10.9359C108.404 12.0239 108.607 13.2399 108.607 14.5839Z"/>
</svg>

